#N canvas 615 110 638 718 10;
#X declare -lib mrpeach;
#X obj 457 615 dac~;
#N canvas 1 85 638 718 verb 0;
#X msg -46 -43 control #1 \$1;
#X obj 70 -11 hsl 128 15 0 10000 0 0 empty decay Decay_0_10000 -2 -8
0 10 -262144 -1 -1 0 1;
#X obj -183 -130 loadbang;
#X msg -38 -18 control #2 \$1;
#X msg -40 3 control #3 \$1;
#X obj 74 322 plugin~ tap_reverb;
#X obj 226 -113 hsl 128 15 0 1 0 0 empty empty Comb_Filters_0_1 -2
-8 0 10 -262144 -1 -1 12700 1;
#X obj 223 -60 hsl 128 15 0 1 0 0 empty empty Allpass_Filters_0_1 -2
-8 0 10 -262144 -1 -1 0 1;
#X obj 225 -11 hsl 128 15 0 1 0 0 empty empty Bandpass_Filter_0_1 -2
-8 0 10 -262144 -1 -1 0 1;
#X msg 225 -93 control #4 \$1;
#X msg 220 -41 control #5 \$1;
#X msg 221 12 control #6 \$1;
#X obj 226 56 hsl 128 15 0 1 0 0 empty empty Enhanced_Stereo_0_1 -2
-8 0 10 -262144 -1 -1 0 1;
#X obj 228 105 hsl 128 15 0 42.1 0 0 empty empty Reverb_Type_0_42.1
-2 -8 0 10 -262144 -1 -1 6033 1;
#X msg 223 75 control #7 \$1;
#X msg 224 128 control #8 \$1;
#X obj 3 -141 r effect12;
#X obj 27 -75 * 10000;
#X obj 76 -74 * 42.1;
#X obj -102 -134 r~ \$0-column4;
#X msg -188 -96 4500;
#X msg -143 -92 20;
#X msg -188 -50 1;
#X obj -42 -113 route fader1 fader2 fader3 fader4 fader5;
#X obj 123 279 inlet~;
#X obj 108 367 outlet~;
#X obj 184 274 inlet~;
#X obj 169 362 outlet~;
#X obj -182 46 effectfader 7 0 10000 1;
#X connect 0 0 5 0;
#X connect 1 0 0 0;
#X connect 2 0 20 0;
#X connect 2 0 21 0;
#X connect 2 0 22 0;
#X connect 3 0 5 0;
#X connect 4 0 5 0;
#X connect 5 1 25 0;
#X connect 5 2 27 0;
#X connect 6 0 9 0;
#X connect 7 0 10 0;
#X connect 8 0 11 0;
#X connect 9 0 5 0;
#X connect 10 0 5 0;
#X connect 11 0 5 0;
#X connect 12 0 14 0;
#X connect 13 0 15 0;
#X connect 14 0 5 0;
#X connect 15 0 5 0;
#X connect 16 0 23 0;
#X connect 17 0 1 0;
#X connect 18 0 13 0;
#X connect 20 0 1 0;
#X connect 21 0 13 0;
#X connect 22 0 6 0;
#X connect 23 0 17 0;
#X connect 23 1 18 0;
#X connect 23 2 8 0;
#X connect 23 3 6 0;
#X connect 23 4 7 0;
#X connect 24 0 5 1;
#X connect 26 0 5 2;
#X connect 28 0 1 0;
#X restore 458 433 pd verb;
#N canvas 635 93 638 718 oscnocturn 0;
#X obj 524 18 import mrpeach;
#X obj 167 18 udpreceive 5005;
#X obj 167 41 unpackOSC;
#X obj 58 586 packOSC;
#X msg 110 614 connect localhost 5006;
#X obj 238 483 pack 1 0;
#X floatatom 278 446 5 0 0 0 - - -;
#X floatatom 326 448 5 0 0 0 - - -;
#X msg 56 499 send /rings \$2 \$1;
#X obj 65 633 udpsend;
#X obj 113 597 loadbang;
#X obj 76 111 s knobsin;
#X obj 58 472 r ringsout;
#X obj 142 109 s buttonsin;
#X msg 172 508 send /buttons \$2 \$1;
#X obj 160 463 r buttonsout;
#X floatatom 510 331 5 0 0 0 - - -;
#X obj 511 212 r buttonvalues;
#X obj 509 268 route 1;
#X obj 508 357 s selected_effect;
#X obj 99 326 nocturnbutton 3;
#X obj 239 203 nocturnfader 7;
#X obj 557 329 save.me.mmb selected_effect assg-presets;
#X obj 502 298 moses 8;
#X obj 247 326 nocturnbutton 7;
#X obj 175 326 nocturnbutton 4;
#X obj 28 326 nocturnbutton 0;
#X obj 52 326 nocturnbutton 1;
#X obj 75 326 nocturnbutton 2;
#X obj 198 326 nocturnbutton 5;
#X obj 223 326 nocturnbutton 6;
#X msg 511 243 \$2 \$1;
#N canvas 1 97 638 718 crossfader 0;
#X obj 107 331 hsl 128 15 0 127 0 0 empty empty empty -2 -8 0 10 -262144
-1 -1 12700 1;
#X obj 248 130 r crossfadein;
#X msg 248 158 \$2;
#X obj 114 173 int;
#X obj 114 201 clip 0 127;
#X floatatom 203 275 5 0 127 0 - - -;
#X obj 255 554 s fadervalues;
#X obj 114 118 r faderin;
#X msg 255 526 \$3 \$2 \$1;
#X text 236 591 selected_effect fader_number value;
#X obj 347 436 r selected_effect;
#X obj 255 498 pack 0 9 0;
#X obj 114 146 route 9;
#X connect 1 0 2 0;
#X connect 2 0 5 0;
#X connect 3 0 4 0;
#X connect 4 0 5 0;
#X connect 5 0 0 0;
#X connect 5 0 11 0;
#X connect 7 0 12 0;
#X connect 8 0 6 0;
#X connect 10 0 11 2;
#X connect 11 0 8 0;
#X connect 12 0 3 0;
#X coords 0 -1 1 1 140 50 1 100 300;
#X restore 74 260 pd crossfader;
#X obj 78 77 routeOSC /knobs /buttons /crossfade /knobstouch;
#X obj 217 110 s crossfadein;
#X obj 28 358 nocturnbutton2 8;
#X obj 247 358 nocturnbutton2 15;
#X obj 223 358 nocturnbutton2 14;
#X obj 75 358 nocturnbutton2 10;
#X obj 52 358 nocturnbutton2 9;
#X obj 99 358 nocturnbutton2 11;
#X obj 175 358 nocturnbutton2 12;
#X obj 198 358 nocturnbutton2 13;
#X obj 6 155 nocturnfader 0;
#X obj 74 203 nocturnfader 3;
#X obj 27 203 nocturnfader 1;
#X obj 188 203 nocturnfader 5;
#X obj 53 155 nocturnfader 2;
#X obj 167 155 nocturnfader 4;
#X obj 216 155 nocturnfader 6;
#N canvas 426 110 638 718 speeddial 0;
#X obj 182 77 moses 82;
#X obj 182 106 bng 15 250 50 0 empty empty empty 17 7 0 10 -262144
-1 -1;
#X obj 217 119 bng 15 250 50 0 empty empty empty 17 7 0 10 -262144
-1 -1;
#X obj 133 167 int;
#X obj 227 184 +;
#X obj 133 196 clip 0 127;
#X floatatom 192 282 5 0 127 0 - - -;
#X obj 182 31 r knobsin;
#X obj 149 564 s ringsout;
#X obj 411 393 loadbang;
#X obj 379 541 s fadervalues;
#X obj 96 70 r faderin;
#X msg 379 512 \$3 \$2 \$1;
#X text 339 564 selected_effect fader_number value;
#X obj 103 304 knob 32 32 0 127 0 0 empty empty empty 0 -8 0 8 -33289
-4034 -1 0 1;
#X obj 154 458 int;
#X obj 5 475 f 0;
#X obj 5 425 r selected_effect;
#X obj 5 453 bng 15 250 50 0 empty empty empty 17 7 0 10 -262144 -1
-1;
#X obj 190 328 expr ($f1 / 127 * 120) + 7;
#X msg 182 133 2;
#X msg 217 146 -2;
#X obj 182 53 route 8;
#X obj 96 99 route 8;
#X obj 149 535 pack 0 8;
#X obj 411 422 int 8;
#X obj 379 484 pack 0 8 8;
#X floatatom 218 535 5 0 0 0 - - -;
#X obj 220 422 env~ 512;
#X obj 220 396 r~ db-meter;
#X obj 139 406 bng 15 250 50 0 empty empty empty 17 7 0 10 -262144
-1 -1;
#X obj 139 431 metro 100;
#X obj 160 405 loadbang;
#X obj 158 481 expr ($f1 / 100 * 127);
#X obj 155 506 int;
#X connect 0 0 1 0;
#X connect 0 1 2 0;
#X connect 1 0 20 0;
#X connect 2 0 21 0;
#X connect 3 0 5 0;
#X connect 4 0 3 0;
#X connect 5 0 4 1;
#X connect 5 0 6 0;
#X connect 6 0 19 0;
#X connect 6 0 26 0;
#X connect 7 0 22 0;
#X connect 9 0 25 0;
#X connect 11 0 23 0;
#X connect 12 0 10 0;
#X connect 15 0 33 0;
#X connect 17 0 18 0;
#X connect 18 0 16 0;
#X connect 20 0 4 0;
#X connect 21 0 4 0;
#X connect 22 0 0 0;
#X connect 23 0 3 0;
#X connect 24 0 8 0;
#X connect 24 0 14 0;
#X connect 25 0 26 1;
#X connect 26 0 12 0;
#X connect 28 0 15 1;
#X connect 29 0 28 0;
#X connect 30 0 31 0;
#X connect 31 0 15 0;
#X connect 32 0 31 0;
#X connect 33 0 34 0;
#X connect 34 0 24 0;
#X connect 34 0 27 0;
#X coords 0 -1 1 1 40 40 2 100 300;
#X restore 119 172 pd speeddial;
#N canvas 1 81 638 718 shutdown 0;
#X obj 296 104 r buttonsin;
#X obj 207 431 outlet;
#X floatatom 297 292 5 0 0 0 - - -;
#X msg 212 385 send /shutdown;
#X obj 314 158 moses 82;
#X msg 314 186 1;
#X msg 347 186 -1;
#X obj 343 211 f 0;
#X obj 314 211 + 0;
#X text 312 135 # of depressed buttons at any moment.;
#X obj 268 326 sel 4;
#X obj 232 358 bng 15 250 50 0 empty empty empty 17 7 0 10 -262144
-1 -1;
#X connect 0 0 4 0;
#X connect 2 0 10 0;
#X connect 3 0 1 0;
#X connect 4 0 5 0;
#X connect 4 1 6 0;
#X connect 5 0 8 0;
#X connect 6 0 8 0;
#X connect 7 0 8 1;
#X connect 8 0 2 0;
#X connect 8 0 7 0;
#X connect 10 0 11 0;
#X connect 11 0 3 0;
#X restore 305 512 pd shutdown;
#X connect 1 0 2 0;
#X connect 2 0 33 0;
#X connect 3 0 9 0;
#X connect 4 0 9 0;
#X connect 5 0 14 0;
#X connect 6 0 5 0;
#X connect 7 0 5 1;
#X connect 8 0 3 0;
#X connect 10 0 4 0;
#X connect 12 0 8 0;
#X connect 14 0 3 0;
#X connect 15 0 14 0;
#X connect 16 0 19 0;
#X connect 16 0 22 0;
#X connect 17 0 31 0;
#X connect 18 0 23 0;
#X connect 22 0 16 0;
#X connect 23 0 16 0;
#X connect 31 0 18 0;
#X connect 33 0 11 0;
#X connect 33 1 13 0;
#X connect 33 2 34 0;
#X connect 51 0 3 0;
#X restore 449 78 pd oscnocturn;
#X text 379 58 nocturn control (osc from python script);
#N canvas 1 97 638 718 midifromremote 0;
#X obj 97 55 notein;
#X floatatom 53 102 5 0 0 0 - - -;
#X floatatom 94 104 5 0 0 0 - - -;
#X floatatom 130 81 5 0 0 0 - - -;
#X floatatom 372 333 5 0 0 0 - - -;
#X floatatom 587 210 5 0 0 0 - - -;
#X floatatom 534 209 5 0 0 0 - - -;
#X obj 498 205 bng 15 250 50 0 empty empty empty 17 7 0 10 -262144
-1 -1;
#X obj 495 133 ctlin 64;
#X obj 497 170 route 0 127;
#X obj 496 273 float 3;
#X obj 556 251 t f b;
#X msg 32 168 \$1;
#X floatatom 103 299 5 0 0 0 - - -;
#X floatatom 48 293 5 0 0 0 - - -;
#X text 511 113 foot pedal select;
#X obj 411 254 pgmin;
#X obj 551 274 float 7;
#X msg -1 357 \$3 \$1 \$2;
#X obj 14 330 pack 0 0 1;
#X msg 364 372 prog 1 \$1;
#N canvas 803 212 621 300 miditest 0;
#X obj 79 8 bendin;
#X obj 208 8 notein;
#X obj 253 8 pgmin;
#X obj 418 8 touchin;
#X obj 292 8 polytouchin;
#X obj 163 8 midiin;
#X obj 367 8 sysexin;
#X obj 76 398 bendout;
#X obj 127 398 ctlout;
#X obj 171 398 midiout;
#X obj 319 398 polytouchout;
#X obj 400 398 touchout;
#X text 8 7 MIDI input:;
#X text 0 398 MIDI output:;
#X obj 224 398 noteout;
#X obj 276 398 pgmout;
#X obj 122 8 ctlin;
#X floatatom 122 72 5 0 0 0 - - -;
#X floatatom 135 51 5 0 0 0 - - -;
#X floatatom 149 30 5 0 0 0 - - -;
#X obj 416 139 select;
#X obj 350 116 swap;
#X obj 370 82 line;
#X floatatom 66 66 5 0 0 0 - - -;
#X floatatom 84 45 5 0 0 0 - - -;
#X connect 0 0 23 0;
#X connect 0 1 24 0;
#X connect 16 0 17 0;
#X connect 16 1 18 0;
#X connect 16 2 19 0;
#X restore 47 28 pd miditest;
#X obj 74 424 outlet;
#X obj 418 334 save.me.mmb prog assg-presets;
#X obj 96 152 moses 1;
#X obj 156 203 / 127;
#X obj 217 96 loadbang;
#X obj 217 118 t b b b;
#X obj 176 45 effectfader 0 1 127 1;
#X obj 144 275 int;
#X obj 160 238 expr ($f1 * ($f2)) + $f3;
#X obj 244 178 effectfader 1 1 127 1;
#X obj 217 142 f 127;
#X obj 263 147 f 64;
#X obj 187 271 clip 0 127;
#X obj 134 322 bendin;
#X obj 134 344 pack 0 0;
#X msg 134 366 bend \$2 \$1;
#X text 273 125 velocity range;
#N canvas 641 81 638 718 mod-aftertouch-routing 0;
#X obj 73 216 ctlin 1;
#X floatatom 72 250 5 0 0 0 - - -;
#X text 78 191 mod wheel;
#X obj 182 192 r fadervalues;
#X obj 24 664 print;
#X obj 178 272 unpack 0 0 0;
#X floatatom 173 297 5 0 0 0 - - -;
#X floatatom 60 314 5 0 0 0 - - -;
#X floatatom 217 296 5 0 0 0 - - -;
#X obj 39 519 s faderin;
#X msg 43 371 \$2 \$1;
#X obj 58 344 pack 0 0;
#X obj 181 239 spigot;
#X obj 233 228 tgl 15 0 empty empty empty 17 7 0 10 -262144 -1 -1 0
1;
#X text 254 220 learn;
#X obj 150 470 spigot;
#X obj 142 506 s fadervalues;
#X obj 168 338 pack 0 0 0;
#X msg 153 365 \$2 \$3 \$1;
#X obj 224 376 sel 0;
#X obj 178 449 tgl 15 0 empty empty empty 17 7 0 10 -262144 -1 -1 1
1;
#X obj 38 481 spigot;
#X obj 255 323 r selected_effect;
#X obj 199 428 f 1;
#X obj 168 427 f 0;
#X obj 74 457 tgl 15 0 empty empty empty 17 7 0 10 -262144 -1 -1 0
1;
#X obj 94 430 f 1;
#X obj 241 397 bng 15 250 50 0 empty empty empty 17 7 0 10 -262144
-1 -1;
#X obj 197 402 bng 15 250 50 0 empty empty empty 17 7 0 10 -262144
-1 -1;
#X obj 64 430 f 0;
#X connect 0 0 1 0;
#X connect 1 0 7 0;
#X connect 1 0 17 0;
#X connect 3 0 12 0;
#X connect 5 0 6 0;
#X connect 5 1 8 0;
#X connect 6 0 17 1;
#X connect 6 0 19 1;
#X connect 7 0 11 0;
#X connect 8 0 11 1;
#X connect 8 0 17 2;
#X connect 10 0 21 0;
#X connect 11 0 10 0;
#X connect 12 0 5 0;
#X connect 13 0 12 1;
#X connect 15 0 16 0;
#X connect 17 0 18 0;
#X connect 18 0 15 0;
#X connect 19 0 24 0;
#X connect 19 0 28 0;
#X connect 19 1 27 0;
#X connect 20 0 15 1;
#X connect 21 0 9 0;
#X connect 22 0 19 0;
#X connect 23 0 20 0;
#X connect 24 0 20 0;
#X connect 25 0 21 1;
#X connect 26 0 25 0;
#X connect 27 0 23 0;
#X connect 27 0 29 0;
#X connect 28 0 26 0;
#X connect 29 0 25 0;
#X restore 86 483 pd mod-aftertouch-routing;
#X connect 0 0 1 0;
#X connect 0 1 2 0;
#X connect 0 2 3 0;
#X connect 1 0 12 0;
#X connect 2 0 24 0;
#X connect 4 0 20 0;
#X connect 4 0 23 0;
#X connect 5 0 17 1;
#X connect 6 0 10 1;
#X connect 7 0 10 0;
#X connect 8 0 9 0;
#X connect 9 0 7 0;
#X connect 10 0 4 0;
#X connect 10 0 11 0;
#X connect 11 0 17 1;
#X connect 11 1 17 0;
#X connect 12 0 14 0;
#X connect 13 0 19 1;
#X connect 14 0 19 0;
#X connect 16 0 4 0;
#X connect 17 0 10 1;
#X connect 18 0 22 0;
#X connect 19 0 18 0;
#X connect 20 0 22 0;
#X connect 23 0 4 0;
#X connect 24 0 13 0;
#X connect 24 1 25 0;
#X connect 25 0 30 0;
#X connect 26 0 27 0;
#X connect 27 0 32 0;
#X connect 27 1 33 0;
#X connect 28 0 30 1;
#X connect 29 0 13 0;
#X connect 30 0 34 0;
#X connect 31 0 30 2;
#X connect 32 0 30 1;
#X connect 33 0 30 2;
#X connect 34 0 29 0;
#X connect 35 0 36 0;
#X connect 35 1 36 1;
#X connect 36 0 37 0;
#X connect 37 0 22 0;
#X restore 20 50 pd midifromremote;
#N canvas 1 110 638 718 delay 0;
#X text 142 620 tapeDelay plugin is cool but no tempo sync;
#X text 486 473 effect number 7;
#X obj 49 35 catch~ button-15-out;
#X obj 81 579 throw~ button-16-in;
#X obj 46 162 delwrite~ del_1 10000;
#X obj 60 138 throw~ del_1 out;
#X obj 84 542 catch~ del_1 out;
#X obj 60 109 *~ 1;
#X obj 198 527 delay_line 7;
#X obj 138 467 delay_line 1;
#X obj 148 477 delay_line 2;
#X obj 158 487 delay_line 3;
#X obj 168 497 delay_line 4;
#X obj 178 507 delay_line 5;
#X obj 188 517 delay_line 6;
#X obj 79 58 effectfader 0 0 1 7;
#X connect 2 0 4 0;
#X connect 2 0 7 0;
#X connect 6 0 3 0;
#X connect 7 0 5 0;
#X connect 15 0 7 1;
#X restore 402 406 pd delay;
#N canvas 412 87 638 718 trem 0;
#X obj 223 559 print INFO;
#X msg 112 298 control #1 \$1;
#X msg 132 322 control #2 \$1;
#X msg 215 309 control #3 \$1;
#X obj 70 202 hsl 128 15 0 20 0 0 empty empty Frequency_0_20 -2 -8
0 10 -262144 -1 -1 1270 1;
#X obj 226 203 hsl 128 15 0 100 0 0 empty empty Depth_0_100 -2 -8 0
10 -262144 -1 -1 0 1;
#X obj 223 522 plugin~ tap_tremolo;
#X obj 222 264 - 70;
#X obj 83 249 * 20;
#X obj 175 243 * 100;
#X obj 222 240 * 90;
#X obj 235 42 route fader1 fader2 fader3 fader4;
#X msg 97 80 5;
#X msg 133 82 50;
#X msg 166 82 0;
#X obj 235 14 r effect11;
#X msg 186 484 info;
#X obj 268 77 r fadervalues;
#X obj 268 115 route 1 2 3;
#X obj 363 331 s faderin;
#X obj 305 296 pack 0 0;
#X obj 425 246 bng 15 250 50 0 empty empty empty 17 7 0 10 -262144
-1 -1;
#X obj 369 292 pack 1 0;
#X obj 431 295 pack 2 0;
#X msg 103 532 9.29134;
#X msg 97 488 set \$2;
#X obj 353 370 bng 15 250 50 0 empty empty empty 17 7 0 10 -262144
-1 -1;
#X obj 230 487 r effect-6;
#X obj 569 672 print;
#X text 517 340 effect number 6;
#X obj 332 487 catch~ button-14-out;
#X obj 332 552 throw~ button-15-in;
#X obj 33 391 effectfader 0 0 20 6;
#X obj 252 432 effectfader 2 -70 20 6;
#X obj 184 382 effectfader 1 0 100 6;
#X connect 4 0 8 0;
#X connect 4 0 20 1;
#X connect 5 0 9 0;
#X connect 5 0 22 1;
#X connect 6 0 0 0;
#X connect 6 1 31 0;
#X connect 7 0 3 0;
#X connect 8 0 1 0;
#X connect 9 0 2 0;
#X connect 10 0 7 0;
#X connect 12 0 4 0;
#X connect 13 0 5 0;
#X connect 15 0 11 0;
#X connect 16 0 6 0;
#X connect 17 0 18 0;
#X connect 18 0 4 0;
#X connect 18 1 5 0;
#X connect 20 0 19 0;
#X connect 21 0 20 0;
#X connect 21 0 22 0;
#X connect 21 0 23 0;
#X connect 22 0 19 0;
#X connect 23 0 19 0;
#X connect 25 0 24 0;
#X connect 27 0 6 0;
#X connect 30 0 6 1;
#X restore 350 407 pd trem;
#N canvas 641 81 638 718 presets 0;
#X text -565 187 select/recall preset;
#X obj -587 5 ctlin;
#X floatatom -629 31 5 0 0 0 - - -;
#X floatatom -578 31 5 0 0 0 - - -;
#X floatatom -530 20 5 0 0 0 - - -;
#X obj -573 167 - 85;
#X obj -574 144 moses 105;
#X obj -574 118 moses 85;
#X obj -415 138 sel 50;
#X obj -435 584 textfile;
#X obj -414 195 bng 15 250 50 0 empty empty empty 17 7 0 10 -262144
-1 -1;
#X msg -358 501 clear;
#X msg -430 380 save;
#X obj -471 291 t s b b b;
#X text -407 168 save;
#X obj -300 233 bng 15 250 50 0 empty empty empty 17 7 0 10 -262144
-1 -1;
#X text -295 275 load;
#X obj -300 335 textfile;
#X obj -332 363 t b a;
#X obj -308 387 prepend load;
#X obj -435 497 prepend add;
#X msg -306 474 effect8knob8 112 \, effect4knob7 63 \, effect4knob4
0 \, effect4knob3 0 \, effect4knob1 87 \, effect4knob0 127 \, effect5knob9
53 \, effect5knob4 61 \, effect5knob5 84 \, effect5knob3 0 \, effect6knob1
0 \, effect6knob2 0 \, effect6knob0 0 \, effect7knob0 125 \, effect7knob6
0 \, effect7knob5 80 \, effect7knob4 12 \, effect7knob3 94 \, effect7knob2
6 \, effect7knob1 0 \, effect7knob7 22 \, effect1knob1 51 \, effect1knob0
57 \, prog 1 \, button13 0 \, button12 0 \, button9 0 \, button14 0
\, button15 0 \, selected_effect 1 \, effect1knob7 18 \,;
#X obj 534 443 textfile;
#X obj 498 94 bng 15 250 50 0 empty empty empty 17 7 0 10 -262144 -1
-1;
#X msg 611 360 clear;
#X obj 540 290 my.hero.mmb \$0-files;
#X msg 539 239 save;
#X obj 498 150 t s b b b;
#X msg 477 389 write \$1;
#X text 516 93 save;
#X obj 669 92 bng 15 250 50 0 empty empty empty 17 7 0 10 -262144 -1
-1;
#X obj 669 120 openpanel;
#X text 687 91 load;
#X obj 669 194 textfile;
#X msg 669 156 read \$1 \, rewind \, bang;
#X obj 637 222 t b a;
#X obj 661 246 prepend load;
#X obj 498 122 savepanel;
#X obj 534 356 prepend add;
#X msg 534 319;
#X obj -429 431 my.hero.mmb assg-presets;
#X msg -493 529 write presets/preset_0.txt;
#X msg -635 492 set write presets/preset_\$1.txt;
#X floatatom -540 211 5 0 0 0 - - -;
#X msg -300 297 read presets/preset_\$1.txt \, rewind \, bang;
#X obj -620 51 pack 0 0;
#X obj -620 75 route 0;
#X connect 1 0 2 0;
#X connect 1 1 3 0;
#X connect 1 2 4 0;
#X connect 2 0 45 0;
#X connect 3 0 45 1;
#X connect 5 0 43 0;
#X connect 6 0 5 0;
#X connect 7 1 6 0;
#X connect 8 0 10 0;
#X connect 10 0 13 0;
#X connect 11 0 9 0;
#X connect 12 0 40 0;
#X connect 13 0 41 0;
#X connect 13 1 21 0;
#X connect 13 2 12 0;
#X connect 13 3 11 0;
#X connect 15 0 44 0;
#X connect 17 0 18 0;
#X connect 18 0 17 0;
#X connect 18 1 19 0;
#X connect 19 0 40 0;
#X connect 20 0 9 0;
#X connect 21 0 20 0;
#X connect 23 0 37 0;
#X connect 24 0 22 0;
#X connect 25 0 39 0;
#X connect 26 0 25 0;
#X connect 27 0 28 0;
#X connect 27 1 39 0;
#X connect 27 2 26 0;
#X connect 27 3 24 0;
#X connect 28 0 22 0;
#X connect 30 0 31 0;
#X connect 31 0 34 0;
#X connect 33 0 35 0;
#X connect 34 0 33 0;
#X connect 35 0 33 0;
#X connect 35 1 36 0;
#X connect 36 0 25 0;
#X connect 37 0 27 0;
#X connect 38 0 22 0;
#X connect 39 0 38 0;
#X connect 40 0 21 0;
#X connect 41 0 9 0;
#X connect 42 0 41 0;
#X connect 43 0 42 0;
#X connect 43 0 44 0;
#X connect 44 0 17 0;
#X connect 45 0 46 0;
#X connect 46 0 7 0;
#X connect 46 0 8 0;
#X restore 359 184 pd presets;
#X obj 191 81 arp;
#X obj 215 49 metro 500;
#X obj 215 15 bng 15 250 50 0 empty empty empty 17 7 0 10 -262144 -1
-1;
#X msg 199 157 \$3 \$1 \$2;
#N canvas 1 109 638 718 wah 0;
#X obj 41 600 vcf~;
#X floatatom 363 550 5 0 0 0 - - -;
#X obj 360 412 vsl 15 128 0 20 0 0 empty empty empty 0 -9 0 10 -262144
-1 -1 0 1;
#X obj 107 41 +~ 1;
#X obj 108 62 *~ 0.5;
#X obj 107 20 osc~ 2;
#X obj 183 289 hsl 128 15 700 6000 0 0 empty empty empty -2 -8 0 10
-262144 -1 -1 11023 1;
#X obj 162 399 hsl 128 15 0 700 0 0 empty empty empty -2 -8 0 10 -262144
-1 -1 0 1;
#X floatatom 164 421 6 0 0 0 - - -;
#X floatatom 135 323 6 0 0 0 - - -;
#X obj 135 304 -;
#X obj 128 275 bang;
#X obj 60 425 +~ 200;
#X obj 53 303 *~ 1500;
#X text 158 37 <-- LFO (Low-Frequency Oscillator;
#X text 342 95 <-- Maximum of the freq. range;
#X text 295 396 <-- Minimum of the freq. range;
#X text 400 507 <-- "Q";
#X text 80 601 <-- Voltage-Controlled band-pass filter;
#X obj 112 -9 hsl 128 15 0.5 4 0 0 empty empty empty -2 -8 0 10 -262144
-1 -1 0 1;
#X obj 290 12 route fader1 fader2 fader3 fader4;
#X obj 250 -4 * 3.5;
#X obj 242 19 + 0.5;
#X obj 332 54 * 5300;
#X obj 330 77 + 700;
#X obj 269 57 * 700;
#X obj 437 54 * 20;
#X obj 290 -16 r effect7;
#X obj 577 112 tgl 15 0 empty empty empty 17 7 0 10 -262144 -1 -1 0
1;
#X obj 507 57 r \$0-push7;
#X obj 390 195 inv;
#X obj 448 334 s \$0-udpmessage;
#X obj 517 232 tgl 15 0 empty empty empty 17 7 0 10 -262144 -1 -1 0
1;
#X msg 471 309 send /2/led2 1;
#X msg 447 287 send /2/led2 0.1;
#X obj 436 202 * 500;
#X msg 563 206 0;
#X obj 435 230 metro 500;
#X obj 450 260 moses 1;
#X floatatom 154 127 5 0 0 0 - - -;
#X obj 43 243 sig~;
#X obj 154 102 snapshot~;
#X obj 161 67 bng 15 250 50 0 empty empty empty 17 7 0 10 -262144 -1
-1;
#X obj 10 558 catch~ button-13-out;
#X obj 42 637 throw~ button-14-in;
#X obj 201 348 effectfader 3 0 700 5;
#X obj 406 438 effectfader 5 0 20 5;
#X obj 218 246 effectfader 4 700 5300 5;
#X obj 41 167 effectfader 9 0 1 5;
#X connect 0 0 44 0;
#X connect 0 1 44 0;
#X connect 2 0 1 0;
#X connect 2 0 0 2;
#X connect 3 0 4 0;
#X connect 4 0 41 0;
#X connect 5 0 3 0;
#X connect 6 0 10 0;
#X connect 7 0 8 0;
#X connect 7 0 10 1;
#X connect 7 0 11 0;
#X connect 7 0 12 1;
#X connect 10 0 9 0;
#X connect 10 0 13 1;
#X connect 11 0 10 0;
#X connect 12 0 0 1;
#X connect 13 0 12 0;
#X connect 19 0 5 0;
#X connect 19 0 30 0;
#X connect 20 0 21 0;
#X connect 20 1 25 0;
#X connect 20 2 23 0;
#X connect 20 3 26 0;
#X connect 21 0 22 0;
#X connect 22 0 19 0;
#X connect 23 0 24 0;
#X connect 27 0 20 0;
#X connect 28 0 36 0;
#X connect 28 0 37 0;
#X connect 29 0 28 0;
#X connect 30 0 35 0;
#X connect 32 0 38 0;
#X connect 33 0 31 0;
#X connect 34 0 31 0;
#X connect 35 0 37 1;
#X connect 36 0 32 0;
#X connect 37 0 32 0;
#X connect 38 0 34 0;
#X connect 38 1 33 0;
#X connect 40 0 13 0;
#X connect 41 0 39 0;
#X connect 42 0 41 0;
#X connect 43 0 0 0;
#X connect 45 0 7 0;
#X connect 46 0 2 0;
#X connect 47 0 6 0;
#X connect 48 0 40 0;
#X restore 305 407 pd wah;
#X obj 39 309 noise~;
#X obj 19 406 throw~ button-8-in;
#X obj 458 405 catch~ button-16-in;
#N canvas 1 89 638 718 overdrive 0;
#X obj 70 217 plugin~ tap_sigmoid;
#X obj 237 49 route fader1 fader2 fader3 fader4;
#X obj 286 508 clip~ -0.5 0.5;
#X obj 439 518 hsl 128 15 0 1 0 0 empty empty empty -2 -8 0 10 -262144
-1 -1 1300 1;
#X obj 325 411 - 1;
#X obj 325 439 * -1;
#X obj 285 545 *~;
#X floatatom 353 478 5 0 0 0 - - -;
#X floatatom 277 462 5 0 0 0 - - -;
#X obj 353 534 * -1;
#X obj 198 532 *~;
#X obj 401 528 - 1;
#X floatatom 349 560 5 0 0 0 - - -;
#X obj 236 498 *~ 5;
#X obj 237 21 r effect1;
#X obj 176 178 catch~ button-12-out;
#X obj 183 662 throw~ button-13-in;
#X text 83 199 tube;
#X text 25 48 pre gain;
#X text 36 112 post gain;
#X obj 64 184 r effect-4;
#X text 281 318 clip amount;
#X text 475 429 clip wet;
#X obj 256 622 *~ 1;
#X text 345 603 output level;
#X obj 10 68 effectfader 0 -90 20 4;
#X obj 14 126 effectfader 1 -90 20 4;
#X obj 266 337 effectfader 3 0 1 4;
#X obj 465 448 effectfader 4 0 1 4;
#X obj 334 620 effectfader 7 0 1 4;
#X connect 0 1 10 0;
#X connect 0 1 13 0;
#X connect 2 0 6 0;
#X connect 3 0 6 1;
#X connect 3 0 11 0;
#X connect 4 0 5 0;
#X connect 4 0 8 0;
#X connect 5 0 7 0;
#X connect 6 0 23 0;
#X connect 7 0 2 2;
#X connect 8 0 2 1;
#X connect 9 0 10 1;
#X connect 9 0 12 0;
#X connect 10 0 23 0;
#X connect 11 0 9 0;
#X connect 13 0 2 0;
#X connect 14 0 1 0;
#X connect 15 0 0 1;
#X connect 20 0 0 0;
#X connect 23 0 16 0;
#X connect 27 0 4 0;
#X connect 28 0 3 0;
#X connect 29 0 23 1;
#X restore 223 410 pd overdrive;
#N canvas 1 89 638 718 tap_tempo 0;
#X obj 231 207 bng 15 250 50 0 empty empty empty 17 7 0 10 -262144
-1 -1;
#X obj 231 335 timer;
#X obj 231 256 tgl 15 0 empty empty empty 17 7 0 10 -262144 -1 -1 1
1;
#X obj 231 295 sel 0 1;
#X floatatom 233 418 10 0 0 0 - - -;
#X text 143 416 ms for delay;
#X text 259 207 tap;
#X obj 383 207 loadbang;
#X msg 383 239 1;
#X obj 231 371 moses 10000;
#X obj 294 396 bng 15 250 50 0 empty empty empty 17 7 0 10 -262144
-1 -1;
#X text 333 317 if the tap output has \; been stopped with the toggle
\; at zero then the \; next tap will send a large number \; so set
moses to the length of \; [delwrite~];
#X obj 230 460 s tempo_in_ms;
#X obj 229 147 ctlin;
#X obj 229 178 sel 48;
#X obj 308 418 save.me.mmb tempo assg-presets;
#X connect 0 0 2 0;
#X connect 1 0 9 0;
#X connect 2 0 3 0;
#X connect 3 0 1 0;
#X connect 3 1 1 1;
#X connect 4 0 12 0;
#X connect 4 0 15 0;
#X connect 7 0 8 0;
#X connect 8 0 2 0;
#X connect 9 0 4 0;
#X connect 9 1 10 0;
#X connect 13 1 14 0;
#X connect 14 0 0 0;
#X connect 15 0 4 0;
#X restore 469 186 pd tap_tempo;
#X obj 501 554 s~ db-meter;
#N canvas 120 278 450 300 general 0;
#X text 137 17 general controls - effect slot 1;
#X text 36 66 fader 0 - velocity range fader 1 - velocity add fader
7 - reverb decay time;
#X restore 368 290 pd general;
#X obj 103 564 pddp/dsp;
#X obj 90 438 loadbang;
#X msg 92 510 \; pd dsp 1;
#X obj 91 472 delay 200;
#X obj 30 236 fluid~ GM.sf2;
#N canvas 404 110 638 718 limiter 0;
#X obj 156 106 env~ 512;
#X obj 109 275 *~;
#X obj 85 23 inlet~;
#X obj 106 338 outlet~;
#X obj 109 81 +~ 0;
#X floatatom 156 129 5 0 0 0 - - -;
#X obj 155 153 moses 10;
#X floatatom 265 115 5 0 0 0 - - -;
#X msg 123 247 1;
#X obj 155 187 bng 15 250 50 0 empty empty empty 17 7 0 10 -262144
-1 -1;
#X obj 204 187 expr (($f1 - $f3) / $f2) - $f1 + $f3;
#X floatatom 302 157 5 0 0 0 - - -;
#X floatatom 205 214 5 0 0 0 - - -;
#X obj 205 238 expr 100 + $f1;
#X obj 203 276 dbtorms;
#X floatatom 198 313 5 0 0 0 - - -;
#X obj 334 61 loadbang;
#X msg 365 116 10;
#X msg 308 88 79;
#X obj 84 397 plugin~ limit_peak;
#X obj 80 441 print;
#X msg 47 363 info;
#X connect 0 0 5 0;
#X connect 1 0 3 0;
#X connect 2 0 4 0;
#X connect 4 0 0 0;
#X connect 4 0 1 0;
#X connect 5 0 6 0;
#X connect 6 0 9 0;
#X connect 6 1 10 0;
#X connect 7 0 6 1;
#X connect 7 0 10 2;
#X connect 8 0 1 1;
#X connect 9 0 8 0;
#X connect 10 0 12 0;
#X connect 11 0 10 1;
#X connect 12 0 13 0;
#X connect 13 0 14 0;
#X connect 14 0 15 0;
#X connect 15 0 1 1;
#X connect 16 0 18 0;
#X connect 16 0 17 0;
#X connect 17 0 11 0;
#X connect 18 0 7 0;
#X connect 19 0 20 0;
#X connect 21 0 19 0;
#X restore 252 588 pd limiter;
#X obj 515 458 effectfader 8 0 2 8;
#X obj 456 568 *~ 1;
#X obj 328 457 r fadervalues;
#X obj 322 546 hsl 128 15 0 1 0 0 empty empty empty -2 -8 0 10 -262144
-1 -1 10200 1;
#X text 522 437 preset trim;
#X obj 322 480 route 1;
#X obj 321 500 route 5;
#X obj 321 524 / 127;
#X obj 458 585 tanh~;
#X obj 459 497 *~ 1;
#X obj 138 358 readsf~;
#X msg 138 320 open cassius.wav \, 1;
#X msg 110 320 0;
#X obj 139 234 effectfader 2 0 1 1;
#X obj 137 286 moses 0.5;
#X connect 1 0 35 0;
#X connect 4 0 24 0;
#X connect 8 0 11 0;
#X connect 9 0 8 0;
#X connect 10 0 9 0;
#X connect 15 0 1 0;
#X connect 21 0 23 0;
#X connect 23 0 22 0;
#X connect 24 0 14 0;
#X connect 26 0 35 1;
#X connect 27 0 34 0;
#X connect 28 0 31 0;
#X connect 29 0 27 1;
#X connect 31 0 32 0;
#X connect 32 0 33 0;
#X connect 33 0 29 0;
#X connect 34 0 0 0;
#X connect 34 0 0 1;
#X connect 35 0 18 0;
#X connect 35 0 27 0;
#X connect 36 0 14 0;
#X connect 36 1 37 0;
#X connect 37 0 36 0;
#X connect 38 0 36 0;
#X connect 39 0 40 0;
#X connect 40 0 38 0;
#X connect 40 1 37 0;
