#N canvas 584 315 450 300 10;
#X obj 48 77 delread~ del_1 500;
#X obj 50 208 throw~ del_1 out;
#X obj 36 157 *~ 0;
#X obj 61 107 effectfader \$1 0 1 7;
#X obj 48 32 * \$1;
#X obj 49 54 / 2;
#X obj 48 3 r tempo_in_ms;
#X connect 0 0 2 0;
#X connect 2 0 1 0;
#X connect 3 0 2 1;
#X connect 4 0 5 0;
#X connect 5 0 0 0;
#X connect 6 0 4 0;
