#N canvas 449 165 638 718 10;
#X obj 31 230 s faderin;
#X obj 37 161 bng 15 250 50 0 empty empty empty 17 7 0 10 -262144 -1
-1;
#X obj 144 -5 r fadervalues;
#X obj 164 216 / 127;
#X obj 238 235 f \$2;
#X obj 284 240 f \$3;
#X obj 238 189 loadbang;
#X obj 169 281 expr ($f1 * ($f3 - $f2)) + $f2;
#X msg 392 370 control #\$2 \$1;
#X obj 106 123 hsl 128 15 0 127 0 0 empty empty empty -2 -8 0 10 -262144
-1 -1 8200 1;
#X text 114 150 \$1 = fader number \$2 = min \$3 = max \$4 = effect
number;
#X obj 135 69 route \$1;
#X obj 137 33 route \$4;
#X obj 30 96 route \$4;
#X obj 35 197 pack \$1 0;
#X obj 372 252 f \$1;
#X obj 238 211 t b b b;
#X obj 374 286 + 1;
#X obj 388 342 pack 0 0;
#X obj 395 397 s effect-\$4;
#X obj 17 54 r selected_effect;
#X obj 34 134 del 50;
#X obj 246 121 save.me.mmb effect\$4knob\$1 assg-presets;
#X obj 219 359 outlet;
#X obj 235 36 inlet;
#X connect 1 0 14 0;
#X connect 2 0 12 0;
#X connect 3 0 7 0;
#X connect 4 0 7 1;
#X connect 5 0 7 2;
#X connect 6 0 16 0;
#X connect 7 0 18 0;
#X connect 7 0 23 0;
#X connect 8 0 19 0;
#X connect 9 0 3 0;
#X connect 9 0 14 1;
#X connect 9 0 22 0;
#X connect 11 0 9 0;
#X connect 12 0 11 0;
#X connect 13 0 21 0;
#X connect 14 0 0 0;
#X connect 15 0 17 0;
#X connect 16 0 4 0;
#X connect 16 1 5 0;
#X connect 16 2 15 0;
#X connect 17 0 18 1;
#X connect 18 0 8 0;
#X connect 20 0 13 0;
#X connect 21 0 1 0;
#X connect 22 0 9 0;
#X connect 24 0 9 0;
#X coords 0 -1 1 1 140 40 1 100 100;
