#N canvas 639 81 638 718 10;
#X obj 172 67 moses 82;
#X obj 172 96 bng 15 250 50 0 empty empty empty 17 7 0 10 -262144 -1
-1;
#X obj 207 109 bng 15 250 50 0 empty empty empty 17 7 0 10 -262144
-1 -1;
#X obj 123 157 int;
#X obj 217 174 +;
#X obj 123 186 clip 0 127;
#X floatatom 182 272 5 0 127 0 - - -;
#X obj 172 21 r knobsin;
#X obj 100 546 s ringsout;
#X obj 310 539 s effect12;
#X obj 100 517 pack 0 \$1;
#X msg 310 510 fader\$2 \$1;
#X obj 401 412 int \$1;
#X obj 401 383 loadbang;
#X obj 400 539 s fadervalues;
#X obj 86 60 r faderin;
#X obj 172 43 route \$1;
#X obj 86 89 route \$1;
#X obj 369 474 pack 0 0 0;
#X msg 400 510 \$3 \$2 \$1;
#X text 352 563 selected_effect fader_number value;
#X obj 470 383 r selected_effect;
#X obj 103 304 knob 32 32 0 127 0 0 empty empty empty 0 -8 0 8 -262144
-258113 -1 2831 1;
#X obj 100 488 int;
#X obj 24 423 f 0;
#X obj 24 373 r selected_effect;
#X obj 24 401 bng 15 250 50 0 empty empty empty 17 7 0 10 -262144 -1
-1;
#X obj 117 447 expr ($f1 / 127 * 120) + 7;
#X msg 172 123 2;
#X msg 207 136 -2;
#X connect 0 0 1 0;
#X connect 0 1 2 0;
#X connect 1 0 28 0;
#X connect 2 0 29 0;
#X connect 3 0 5 0;
#X connect 4 0 3 0;
#X connect 5 0 4 1;
#X connect 5 0 6 0;
#X connect 6 0 18 0;
#X connect 6 0 22 0;
#X connect 6 0 27 0;
#X connect 7 0 16 0;
#X connect 10 0 8 0;
#X connect 12 0 18 1;
#X connect 13 0 12 0;
#X connect 15 0 17 0;
#X connect 16 0 0 0;
#X connect 17 0 3 0;
#X connect 18 0 11 0;
#X connect 18 0 19 0;
#X connect 19 0 14 0;
#X connect 21 0 18 2;
#X connect 23 0 10 0;
#X connect 24 0 23 0;
#X connect 25 0 26 0;
#X connect 26 0 24 0;
#X connect 27 0 23 0;
#X connect 28 0 4 0;
#X connect 29 0 4 0;
#X coords 0 -1 1 1 40 40 2 100 300;
