#N canvas 671 125 450 483 10;
#X obj 199 116 moses 82;
#X obj 198 140 bng 15 250 50 0 empty empty empty 17 7 0 10 -262144
-1 -1;
#X obj 237 146 bng 15 250 50 0 empty empty empty 17 7 0 10 -262144
-1 -1;
#X obj 202 69 r buttonsin;
#X obj 100 203 tgl 20 0 empty empty empty 17 7 0 10 -191407 -258113
-1 0 1;
#X obj 95 284 s buttonsout;
#X obj 200 94 route \$1;
#X obj 234 221 pack 0 \$1;
#X msg 239 250 \$2 \$1;
#X obj 242 285 s buttonvalues;
#X obj 240 180 f 1;
#X obj 96 246 pack 0 \$1;
#X obj 55 103 r selected_effect;
#X obj 56 137 sel \$1;
#X obj 57 169 f 1;
#X obj 101 157 bng 15 250 50 0 empty empty empty 17 7 0 10 -262144
-1 -1;
#X obj 101 179 f 0;
#X connect 0 0 1 0;
#X connect 0 1 2 0;
#X connect 2 0 10 0;
#X connect 3 0 6 0;
#X connect 4 0 11 0;
#X connect 6 0 0 0;
#X connect 7 0 8 0;
#X connect 8 0 9 0;
#X connect 10 0 7 0;
#X connect 11 0 5 0;
#X connect 12 0 13 0;
#X connect 13 0 14 0;
#X connect 13 1 15 0;
#X connect 14 0 4 0;
#X connect 15 0 16 0;
#X connect 16 0 4 0;
#X coords 0 -1 1 1 20 25 2 100 200;
